<?xml version="1.0" encoding="utf-8" ?><svg xmlns="http://www.w3.org/2000/svg" xmlns:xlink="http://www.w3.org/1999/xlink" width="1024" height="1024" viewBox="0 0 1024 1024"><defs><linearGradient id="gradient_0" gradientUnits="userSpaceOnUse" x1="268.36023" y1="427.78702" x2="232.73859" y2="54.292198"><stop offset="0" stop-color="#F99829"/><stop offset="1" stop-color="#FD895C"/></linearGradient></defs><path fill="url(#gradient_0)" transform="scale(2 2)" d="M198.185 100.231C210.546 83.9376 245.286 62.8641 263.018 54.4026C266.523 52.7302 271.527 49.9857 275.103 49.4815C281.911 48.8668 286.608 56.3435 283.645 62.4139C275.981 78.1133 267.087 90.3011 263.764 108.885C256.814 149.118 276.439 157.764 297.2 183.021L297.402 183.27C303.26 176.695 307.514 165.253 309.271 156.527C311.709 134.704 323.603 144.353 332.57 155.951C346.178 173.553 360.729 195.208 362.954 217.916C367.151 213.547 376.84 198.129 383.957 210.178C422.805 275.948 421.136 355.638 365.424 411.076C361.668 414.83 358.289 418.265 354.066 421.411C363.49 403.439 364.364 401.446 364.242 382.051L364.232 330.822C364.235 300.369 364.175 299.159 342.967 277.502L311.194 245.347C292.898 227.343 271.983 193.11 242.784 206.37C233.535 210.57 229.075 216.867 222.071 224.076L171.538 275.653C150.294 297.236 148.44 295.132 148.463 324.188L148.462 381.899C148.456 399.737 147.971 401.443 154.913 418.115C125.703 392.233 105.813 355.746 102.745 316.585C99.0465 269.363 113.727 268.424 132.026 230.835C138.226 217.936 140.027 202.463 139.374 188.261C139.081 181.88 146.206 178.749 150.852 182.497C159.555 189.516 166.724 199.3 173.999 207.863C174.955 199.337 172.868 190.144 171.851 181.643C168.609 154.522 178.094 119.674 198.185 100.231Z"/><path fill="#F55A40" transform="scale(2 2)" d="M198.185 100.231C210.546 83.9376 245.286 62.8641 263.018 54.4026C266.523 52.7302 271.527 49.9857 275.103 49.4815C281.911 48.8668 286.608 56.3435 283.645 62.4139C275.981 78.1133 267.087 90.3011 263.764 108.885L263.269 108.801C265.796 93.4965 274.944 75.4306 282.996 62.4545C284.84 59.4826 284.263 56.0662 282.166 53.3613C277.619 47.4973 270.137 51.7952 265.071 54.0995C248.553 61.6132 209.482 85.2662 198.623 100.572L198.185 100.231Z"/><path fill="#F55A40" transform="scale(2 2)" d="M342.981 430.557L343.104 430.633C342.553 431.702 339.25 433.734 338.163 434.448C291.756 464.931 234.052 465.784 185.288 440.678C179.91 437.733 176.125 435.56 171.212 431.945C176.369 433.04 181.197 435.818 187.047 436.154C195.438 436.636 204.078 436.404 212.493 436.401L301.877 436.408C319.157 436.423 326.813 437.865 342.981 430.557Z"/><path fill="#FAA138" transform="scale(2 2)" d="M243.809 346.928C244.334 344.246 246.424 338.142 247.291 335.326L259.01 296.284C260.271 291.996 261.595 285.073 265.245 282.281C270.484 278.274 280.026 282.312 279.946 289.214C277.733 300.37 273.52 311.315 270.453 322.254C267.929 331.257 264.958 342.751 261.645 351.46C258.907 362.436 254.533 374.681 251.318 385.736C246.91 399.806 230.783 393.284 233.215 382.787C235.276 373.893 240.342 355.352 243.809 346.928Z"/><defs><linearGradient id="gradient_1" gradientUnits="userSpaceOnUse" x1="241.37042" y1="393.3205" x2="247.28285" y2="362.25546"><stop offset="0" stop-color="#F02F22"/><stop offset="1" stop-color="#F8744B"/></linearGradient></defs><path fill="url(#gradient_1)" transform="scale(2 2)" d="M261.645 351.46C258.907 362.436 254.533 374.681 251.318 385.736C246.91 399.806 230.783 393.284 233.215 382.787C235.276 373.893 240.342 355.352 243.809 346.928C244.052 349.897 239.854 358.965 240.366 361.196C242.201 361.655 255.69 365.865 256.539 365.585C258.008 363.222 260.145 352.491 261.645 351.46Z"/><defs><linearGradient id="gradient_2" gradientUnits="userSpaceOnUse" x1="192.99725" y1="315.86215" x2="215.65746" y2="344.69626"><stop offset="0" stop-color="#FFE51C"/><stop offset="1" stop-color="#FB9544"/></linearGradient></defs><path fill="url(#gradient_2)" transform="scale(2 2)" d="M199.166 367.006C194.385 363.4 183.144 351.564 179.122 346.903C172.429 339.147 179.501 332.932 184.823 327.435C190.642 321.421 203.389 306.807 209.727 302.405C218.632 296.221 227.514 306.954 222.477 315.42C215.116 323.97 205.519 331.803 198.185 340.313C203.342 344.551 212.152 353.662 217.015 358.676C225.352 365.487 225.751 376.467 214.946 377.587C209.465 378.155 202.837 371.149 199.166 367.006Z"/><path fill="#F55A40" transform="scale(2 2)" d="M192.779 360.753L194.153 359.725C198.053 356.766 203.178 354.979 207.681 351.346C207.811 347.952 213.415 357.178 217.015 358.676C225.352 365.487 225.751 376.467 214.946 377.587C209.465 378.155 202.837 371.149 199.166 367.006C198.749 365.46 194.33 361.619 192.779 360.753Z"/><defs><linearGradient id="gradient_3" gradientUnits="userSpaceOnUse" x1="320.57639" y1="319.38208" x2="284.62189" y2="350.961"><stop offset="0" stop-color="#FCBC33"/><stop offset="1" stop-color="#F66348"/></linearGradient></defs><path fill="url(#gradient_3)" transform="scale(2 2)" d="M313.87 340.313C308.329 333.883 293.899 321.775 290.136 315.85C285.728 308.911 292.035 300.658 299.817 301.691C305.454 302.439 329.042 328.356 333.054 333.011C339.403 340.454 331.028 348.49 326.269 353.299L316.516 363.126C315.219 364.429 309.478 370.382 308.276 371.324C294.291 387.446 284.641 370.239 290.075 363.258C292.171 360.319 310.643 342.571 313.87 340.313Z"/><path fill="#F55A40" transform="scale(2 2)" d="M292.953 360.753C296.178 363.348 307.591 368.85 308.276 371.324C294.291 387.446 284.641 370.239 290.075 363.258C291.335 362.592 291.969 361.784 292.953 360.753Z"/></svg>